<?xml version="1.0" encoding="iso-8859-1"?>
<!-- Generator: Adobe Illustrator 19.0.0, SVG Export Plug-In . SVG Version: 6.00 Build 0)  -->
<svg version="1.1" id="Layer_1" xmlns="http://www.w3.org/2000/svg" xmlns:xlink="http://www.w3.org/1999/xlink" x="0px" y="0px"
	 viewBox="0 0 512 512" style="enable-background:new 0 0 512 512;" xml:space="preserve">
<path style="fill:#C7CFE2;" d="M485.083,425.521H26.917c-10.122,0-18.327-8.205-18.327-18.327V77.315
	c0-10.122,8.205-18.327,18.327-18.327h458.166c10.122,0,18.327,8.205,18.327,18.327v329.879
	C503.409,417.317,495.205,425.521,485.083,425.521z"/>
<path style="fill:#AFB9D2;" d="M8.591,370.541v36.653c0,10.121,8.206,18.327,18.327,18.327h182.248l-8.145,73.306h109.96
	l-8.145-73.306h182.248c10.121,0,18.327-8.206,18.327-18.327v-36.653H8.591z"/>
<rect x="45.244" y="95.642" style="fill:#FFFFFF;" width="421.512" height="284.063"/>
<polygon style="fill:#959CB5;" points="302.835,425.521 209.165,425.521 206.112,453.011 305.89,453.011 "/>
<path style="fill:#707487;" d="M393.45,333.888H118.55c-10.122,0-18.327-8.205-18.327-18.327v-36.653
	c0-10.122,8.205-18.327,18.327-18.327H393.45c10.122,0,18.327,8.205,18.327,18.327v36.653
	C411.776,325.684,403.572,333.888,393.45,333.888z"/>
<path style="fill:#FFDC64;" d="M365.96,13.172H146.04c-5.06,0-9.163,4.103-9.163,9.163v274.899h238.246V22.336
	C375.123,17.275,371.02,13.172,365.96,13.172z"/>
<path style="fill:#FFC850;" d="M320.143,132.295H283.49c-5.06,0-9.163-4.103-9.163-9.163v-54.98c0-5.06,4.103-9.163,9.163-9.163
	h36.653c5.06,0,9.163,4.103,9.163,9.163v54.98C329.306,128.192,325.204,132.295,320.143,132.295z"/>
<circle style="fill:#FF507D;" cx="301.817" cy="233.092" r="27.49"/>
<path style="fill:#FFC850;" d="M327.628,297.235c1.042-2.867,1.678-5.93,1.678-9.163c0-15.182-12.307-27.49-27.49-27.49
	s-27.49,12.307-27.49,27.49c0,3.233,0.636,6.296,1.678,9.163H327.628z"/>
<path d="M485.083,50.398h-73.31c-4.744,0-8.591,3.846-8.591,8.591s3.846,8.591,8.591,8.591h73.31c5.369,0,9.736,4.367,9.736,9.736
	v329.879c0,5.369-4.367,9.736-9.736,9.736H26.917c-5.369,0-9.736-4.367-9.736-9.736V77.315c0-5.369,4.367-9.736,9.736-9.736h73.305
	c4.744,0,8.591-3.846,8.591-8.591s-3.846-8.591-8.591-8.591H26.917C12.075,50.398,0,62.473,0,77.315v329.879
	c0,14.842,12.075,26.917,26.917,26.917h173.535l-7.016,56.125h-29.069c-4.744,0-8.591,3.846-8.591,8.591
	c0,4.744,3.846,8.591,8.591,8.591h183.266c4.744,0,8.591-3.846,8.591-8.591c0-4.744-3.846-8.591-8.591-8.591h-29.069l-7.016-56.125
	h173.535c14.842,0,26.917-12.075,26.917-26.917V77.315C512,62.473,499.925,50.398,485.083,50.398z M301.248,490.237H210.75
	l7.016-56.125h76.467L301.248,490.237z"/>
<path d="M100.224,87.051h-54.98c-4.744,0-8.591,3.846-8.591,8.591v284.063c0,4.744,3.846,8.591,8.591,8.591h45.82
	c4.744,0,8.591-3.846,8.591-8.591c0-4.744-3.846-8.591-8.591-8.591H53.834V104.233h46.389c4.744,0,8.591-3.846,8.591-8.591
	S104.968,87.051,100.224,87.051z"/>
<path d="M127.713,371.114c-4.744,0-8.591,3.846-8.591,8.591c0,4.744,3.846,8.591,8.591,8.591h339.044
	c4.744,0,8.591-3.846,8.591-8.591V95.642c0-4.744-3.846-8.591-8.591-8.591h-54.98c-4.744,0-8.591,3.846-8.591,8.591
	s3.846,8.591,8.591,8.591h46.389v266.881H127.713z"/>
<path d="M91.633,278.908v36.653c0,14.842,12.075,26.917,26.917,26.917H393.45c14.842,0,26.917-12.075,26.917-26.917v-36.653
	c0-14.842-12.075-26.917-26.917-26.917h-9.736V22.336c0-9.79-7.964-17.754-17.754-17.754H146.04c-9.79,0-17.754,7.964-17.754,17.754
	v229.655h-9.736C103.708,251.991,91.633,264.066,91.633,278.908z M146.04,21.763H365.96c0.316,0,0.573,0.257,0.573,0.573v266.309
	h-28.659c0.003-0.191,0.024-0.38,0.024-0.573c0-11.004-4.957-20.866-12.75-27.49c7.792-6.624,12.75-16.486,12.75-27.49
	c0-19.895-16.186-36.081-36.081-36.081s-36.081,16.186-36.081,36.081c0,11.004,4.957,20.866,12.75,27.49
	c-7.792,6.624-12.75,16.486-12.75,27.49c0,0.191,0.009,0.381,0.013,0.573h-74.465V58.989c0-4.744-3.846-8.591-8.591-8.591
	s-8.591,3.846-8.591,8.591v229.655h-28.635v-27.996c0-0.023,0.003-0.044,0.003-0.066s-0.003-0.044-0.003-0.066V22.336
	C145.468,22.019,145.724,21.763,146.04,21.763z M282.941,288.644c-0.006-0.191-0.024-0.38-0.024-0.573
	c0-10.421,8.478-18.899,18.899-18.899s18.899,8.478,18.899,18.899c0,0.192-0.018,0.381-0.024,0.573H282.941z M282.917,233.092
	c0-10.421,8.478-18.899,18.899-18.899s18.899,8.478,18.899,18.899c0,10.421-8.478,18.899-18.899,18.899
	S282.917,243.513,282.917,233.092z M136.877,305.826h238.246c4.744,0,8.591-3.846,8.591-8.591v-28.063h9.736
	c5.369,0,9.736,4.367,9.736,9.736v36.653c0,5.369-4.367,9.736-9.736,9.736H118.55c-5.369,0-9.736-4.367-9.736-9.736v-36.653
	c0-5.369,4.367-9.736,9.736-9.736h9.736v28.063C128.286,301.979,132.133,305.826,136.877,305.826z"/>
<path d="M219.347,113.396c4.744,0,8.591-3.846,8.591-8.591V58.989c0-4.744-3.846-8.591-8.591-8.591s-8.591,3.846-8.591,8.591v45.817
	C210.756,109.55,214.602,113.396,219.347,113.396z"/>
<path d="M219.347,195.866c4.744,0,8.591-3.846,8.591-8.591v-45.817c0-4.744-3.846-8.591-8.591-8.591s-8.591,3.846-8.591,8.591
	v45.817C210.756,192.019,214.602,195.866,219.347,195.866z"/>
<path d="M219.347,269.172c4.744,0,8.591-3.846,8.591-8.591v-36.653c0-4.744-3.846-8.591-8.591-8.591s-8.591,3.846-8.591,8.591
	v36.653C210.756,265.326,214.602,269.172,219.347,269.172z"/>
<path d="M283.49,140.886h36.653c9.79,0,17.754-7.964,17.754-17.754v-54.98c0-9.79-7.964-17.754-17.754-17.754H283.49
	c-9.79,0-17.754,7.964-17.754,17.754v54.98C265.736,132.922,273.7,140.886,283.49,140.886z M320.143,123.705H283.49
	c-0.316,0-0.573-0.257-0.573-0.573v-18.899h37.799v18.899C320.716,123.448,320.459,123.705,320.143,123.705z M283.49,67.579h36.653
	c0.316,0,0.573,0.257,0.573,0.573v18.899h-37.799V68.152C282.917,67.836,283.174,67.579,283.49,67.579z"/>
<g>
</g>
<g>
</g>
<g>
</g>
<g>
</g>
<g>
</g>
<g>
</g>
<g>
</g>
<g>
</g>
<g>
</g>
<g>
</g>
<g>
</g>
<g>
</g>
<g>
</g>
<g>
</g>
<g>
</g>
</svg>
